<svg width="114" height="123" viewBox="0 0 114 123" fill="none" xmlns="http://www.w3.org/2000/svg">
<g clip-path="url(#clip0_674_10)">
<path d="M78.098 13.509L78.131 13.522H78.139C81.047 14.704 83.838 16.125 86.479 17.748C89.1 19.36 91.6 21.203 93.946 23.239C105.938 33.647 113.526 49.003 113.526 66.118V66.134H113.52C113.514 81.802 107.159 95.995 96.887 106.261C86.631 116.517 72.453 122.866 56.797 122.874V122.88H56.764H56.749V122.874C41.083 122.87 26.894 116.517 16.626 106.247L16.621 106.251C6.365 95.994 0.015 81.814 0.006 66.15H0V66.117V66.078H0.006C0.01 59.18 1.245 52.567 3.498 46.463C4.414 43.977 5.507 41.566 6.753 39.253C13.144 27.38 23.649 18.04 36.356 13.142L38.99 12.125V14.942V33.817V34.906L38.043 35.475L38.036 35.479L38.028 35.484L38.021 35.488C36.583 36.369 35.212 37.353 33.92 38.413L33.924 38.417C32.62 39.496 31.392 40.659 30.265 41.894H30.258C24.427 48.269 20.865 56.775 20.865 66.114V66.13H20.858C20.86 76.03 24.886 85.007 31.385 91.505L31.381 91.509C37.873 97.997 46.838 102.015 56.73 102.021V102.015H56.763H56.778V102.021C66.685 102.019 75.661 97.996 82.152 91.503C88.643 85.01 92.66 76.045 92.668 66.148H92.66V66.115V66.09H92.668C92.666 59.795 91.035 53.869 88.184 48.728C87.733 47.917 87.231 47.094 86.688 46.275C83.969 42.19 80.436 38.684 76.329 36.009L75.444 35.432V34.39V15.303V12.446L78.098 13.509ZM47.509 0H66.016H67.954V1.937V51.906V53.843H66.016H47.509H45.572V51.906V1.937V0H47.509Z" fill="#8D96CA"/>
</g>
<defs>
<clipPath id="clip0_674_10">
<rect width="113.525" height="122.879" fill="white"/>
</clipPath>
</defs>
</svg>
